<?xml version="1.0" encoding="utf-8"?>
<!-- Generator: Adobe Illustrator 24.0.3, SVG Export Plug-In . SVG Version: 6.00 Build 0)  -->
<svg version="1.1" id="Layer_1" xmlns="http://www.w3.org/2000/svg" xmlns:xlink="http://www.w3.org/1999/xlink" x="0px" y="0px"
	 viewBox="0 0 144 144" style="enable-background:new 0 0 144 144;" xml:space="preserve">
<g>
	<path d="M0.8,48.5C0.8,48.4,0.8,48.4,0.8,48.5C0.9,48.3,1,48.2,1.2,48C11,36.5,20.9,24.9,30.7,13.3c0.2-0.2,0.3-0.3,0.6-0.3
		c26.8,0,53.6,0,80.5-0.1c0.2,0,0.4,0.1,0.5,0.2c9.3,10.5,18.5,21.1,27.8,31.6c1,1.2,2.1,2.4,3.1,3.6
		c-24.1,30.6-48.2,61.2-72.4,91.7c-0.1-0.1-0.2-0.2-0.2-0.3c-6-7.9-12.1-15.8-18.1-23.7C43.7,104.6,34.8,93,26,81.5
		c-7.3-9.6-14.7-19.2-22-28.8C2.9,51.2,1.9,49.9,0.8,48.5z"/>
</g>
</svg>
